<?xml version="1.0" encoding="UTF-8"?>
<svg xmlns="http://www.w3.org/2000/svg" width="381" height="92" viewBox="0 0 381 92" fill="none">
  <path d="M28.7512 27.766C28.7512 28.8039 27.9098 29.6453 26.8719 29.6453H1.87926C0.841375 29.6453 0 28.8039 0 27.766L0 2.77326C0 1.73537 0.841374 0.893988 1.87926 0.893988H26.8719C27.9098 0.893988 28.7512 1.73537 28.7512 2.77326V27.766Z" fill="#FA3211"></path>
  <path d="M32.6963 0.893555C31.7066 0.893555 30.9042 1.69593 30.9042 2.6857V27.8527C30.9042 28.8425 31.7066 29.6448 32.6963 29.6448H57.8632C58.853 29.6448 59.6554 28.8425 59.6554 27.8527V2.68571C59.6554 1.69593 58.853 0.893555 57.8632 0.893555H32.6963Z" fill="url(#paint0_linear_3632_35788)"></path>
  <path d="M28.752 33.592C28.752 32.6022 27.9496 31.7998 26.9599 31.7998H1.79295C0.80318 31.7998 0.000808985 32.6022 0.000808985 33.592V58.759C0.000808985 59.7487 0.803179 60.5511 1.79295 60.5511H26.9599C27.9496 60.5511 28.752 59.7487 28.752 58.759V33.592Z" fill="url(#paint1_linear_3632_35788)"></path>
  <path d="M90.5642 89.5785C90.5642 90.6164 89.7229 91.4578 88.685 91.4578H63.6923C62.6544 91.4578 61.8131 90.6164 61.8131 89.5785V64.5858C61.8131 63.5479 62.6544 62.7065 63.6923 62.7065H88.685C89.7229 62.7065 90.5642 63.5479 90.5642 64.5858V89.5785Z" fill="#FA3211"></path>
  <path d="M57.866 91.4578C58.8557 91.4578 59.6581 90.6554 59.6581 89.6656V64.4987C59.6581 63.5089 58.8557 62.7065 57.866 62.7065H32.6991C31.7093 62.7065 30.9069 63.5089 30.9069 64.4987V89.6656C30.9069 90.6554 31.7093 91.4578 32.6991 91.4578H57.866Z" fill="url(#paint2_linear_3632_35788)"></path>
  <path d="M61.8126 58.7594C61.8126 59.7492 62.615 60.5515 63.6048 60.5515H88.7717C89.7614 60.5515 90.5638 59.7492 90.5638 58.7594V33.5924C90.5638 32.6026 89.7614 31.8003 88.7717 31.8003H63.6048C62.615 31.8003 61.8126 32.6026 61.8126 33.5924V58.7594Z" fill="url(#paint3_linear_3632_35788)"></path>
  <path d="M157.962 69.7621L148.059 51.6187C152.512 49.0932 155.237 44.9063 155.237 39.3237C155.237 30.0193 149.189 23.2405 137.359 23.2405H119.482V69.7621H130.846V54.2106H137.359C137.625 54.2106 137.825 54.2106 138.024 54.2106L145.866 69.7621H157.962ZM130.846 34.0069H137.359C141.148 34.0069 143.74 35.8678 143.74 39.3237C143.74 43.3112 140.682 44.6404 137.359 44.6404H130.846V34.0069Z" fill="#FAFAFA"></path>
  <path d="M174.719 35.2696C164.218 35.2696 156.642 42.9125 156.642 52.9479C156.642 62.9168 164.218 70.6261 174.719 70.6261C185.286 70.6261 192.796 62.9168 192.796 52.9479C192.796 42.9125 185.286 35.2696 174.719 35.2696ZM174.719 60.1255C170.399 60.1255 167.541 56.869 167.541 52.9479C167.541 49.0268 170.399 45.7038 174.719 45.7038C179.105 45.7038 181.963 49.0268 181.963 52.9479C181.963 56.869 179.105 60.1255 174.719 60.1255Z" fill="#FAFAFA"></path>
  <path d="M212.518 60.1255C208.198 60.1255 205.34 56.869 205.34 52.9479C205.34 49.0268 208.198 45.7038 212.518 45.7038C215.176 45.7038 217.303 46.9665 218.566 48.8938L227.87 43.3112C224.813 38.3932 219.23 35.2696 212.518 35.2696C202.017 35.2696 194.441 42.9125 194.441 52.9479C194.441 62.9168 202.017 70.6261 212.518 70.6261C219.23 70.6261 224.813 67.436 227.87 62.5845L218.566 57.0019C217.303 58.8628 215.176 60.1255 212.518 60.1255Z" fill="#FAFAFA"></path>
  <path d="M263.564 69.7621L251.469 52.0174L262.701 36.0672H250.605L241.367 50.0236V23.2405H230.534V69.7621H241.367V54.9417L250.937 69.7621H263.564Z" fill="#FAFAFA"></path>
  <path d="M266.191 69.7621H276.958V36.0672H266.191V69.7621Z" fill="#FAFAFA"></path>
  <path d="M302.642 35.2696C298.255 35.2696 295.331 36.9976 293.404 39.1908V36.0672H282.637V69.7621H293.404V51.6187C293.404 47.8969 295.663 45.8367 298.787 45.8367C301.778 45.8367 304.17 47.764 304.17 51.6187V69.7621H315.003V48.6945C315.003 41.9156 311.016 35.2696 302.642 35.2696Z" fill="#FAFAFA"></path>
  <path d="M330.473 70.3252H342.435V36.6301H330.473V70.3252ZM336.454 33.4401C339.91 33.4401 342.701 30.6488 342.701 27.1929C342.701 23.8035 339.91 21.0122 336.454 21.0122C332.998 21.0122 330.207 23.8035 330.207 27.1929C330.207 30.6488 332.998 33.4401 336.454 33.4401Z" fill="#FE5407"></path>
  <path d="M381 23.8035H345.444V36.2979H356.344V70.3252H370.101V36.2979H381V23.8035Z" fill="#FE5407"></path>
  <path d="M271.575 33.6016C275.03 33.6016 277.822 30.8103 277.822 27.3544C277.822 23.965 275.03 21.1737 271.575 21.1737C268.119 21.1737 265.327 23.965 265.327 27.3544C265.327 30.8103 268.119 33.6016 271.575 33.6016Z" fill="#FAFAFA"></path>
  <path d="M319.665 23.1425L313.019 37.7636L318.402 40.8208L326.842 27.263L319.665 23.1425Z" fill="#FAFAFA"></path>
  <defs>
    <linearGradient id="paint0_linear_3632_35788" x1="61.6963" y1="16.5123" x2="190.5" y2="16.5122" gradientUnits="userSpaceOnUse">
      <stop stop-color="#FA3211"></stop>
      <stop offset="1" stop-color="#FF6A00"></stop>
    </linearGradient>
    <linearGradient id="paint1_linear_3632_35788" x1="321.382" y1="74.2646" x2="321.382" y2="46.3157" gradientUnits="userSpaceOnUse">
      <stop stop-color="#FA3211"></stop>
      <stop offset="1" stop-color="#FF6A00"></stop>
    </linearGradient>
    <linearGradient id="paint2_linear_3632_35788" x1="324.028" y1="76.1341" x2="190.5" y2="76.1341" gradientUnits="userSpaceOnUse">
      <stop stop-color="#FA3211"></stop>
      <stop offset="1" stop-color="#FF6A00"></stop>
    </linearGradient>
    <linearGradient id="paint3_linear_3632_35788" x1="321.382" y1="74.2646" x2="321.382" y2="46.3157" gradientUnits="userSpaceOnUse">
      <stop stop-color="#FA3211"></stop>
      <stop offset="1" stop-color="#FF6A00"></stop>
    </linearGradient>
  </defs>
</svg>
